<mxfile host="app.diagrams.net" modified="2023-06-29T08:36:21.170Z" agent="Mozilla/5.0 (Windows NT 10.0; Win64; x64) AppleWebKit/537.36 (KHTML, like Gecko) Chrome/110.0.0.0 Safari/537.36" version="21.5.2" etag="IjHA2O2GeBVf24Ag79_c" type="github">
  <diagram name="Page-1" id="9Y7QJpkzUfC18Jad_XJi">
    <mxGraphModel>
      <root>
        <mxCell id="0" />
        <mxCell id="1" parent="0" />
      </root>
    </mxGraphModel>
  </diagram>
</mxfile>
